<svg data-v-0dd9719b="" version="1.0" xmlns="http://www.w3.org/2000/svg" xmlns:xlink="http://www.w3.org/1999/xlink" width="100%" height="100%" viewBox="0 0 340.000000 250.000000" preserveAspectRatio="xMidYMid meet" color-interpolation-filters="sRGB" style="margin: auto;"> <rect data-v-0dd9719b="" x="0" y="0" width="100%" height="100%" fill="#ffffff" fill-opacity="1" class="background"></rect> <rect data-v-0dd9719b="" x="0" y="0" width="100%" height="100%" fill="url(#watermark)" fill-opacity="1" class="watermarklayer"></rect> <g data-v-0dd9719b="" fill="#0a0619" class="icon-text-wrapper icon-svg-group iconsvg" transform="translate(42.16999816894531,97.5)"><g fill="#FFFFFF" class="iconsvg-imagesvg icon_container" transform="translate(0,0)" mask="url(#94ff81f3-e38e-40fe-8878-6da77cd72bd9)"><rect fill="#0a0619" fill-opacity="0" stroke-width="2" x="0" y="0" width="55" height="55" class="image-rect"></rect> <svg viewBox="0 0 60 60" x="0" y="0" width="55" height="55" class="image-svg-svg bn" style="overflow: visible;"><g hollow-target="iconBnFill" mask="url(#513b285a-c9df-4202-b523-2fe47a639c89)"><g><svg fill="#000000" xmlns="http://www.w3.org/2000/svg" xmlns:xlink="http://www.w3.org/1999/xlink" xmlns:sketch="http://www.bohemiancoding.com/sketch/ns" viewBox="0 0 60 60" version="1.1" x="0" y="0" style="overflow: visible;" width="60" height="60" filtersec="colorsf8392621420" filter="url(#LZRNk-I_kuv3Ht8FxRmXd)"><g transform="scale(1, 1) skewX(0)"><title>96 - Rounded (Solid)</title><desc>Created with Sketch.</desc><g fill-rule="evenodd"><g fill="#000000"><path d="M49.001,0 L10.999,0 C4.934,0 0,4.934 0,10.999 L0,49.001 C0,55.066 4.934,60 10.999,60 L49.001,60 C55.065,60 60,55.066 60,49.001 L60,10.999 C60,4.934 55.065,0 49.001,0"></path></g></g></g><defs><filter id="LZRNk-I_kuv3Ht8FxRmXd"><feColorMatrix type="matrix" values="0 0 0 0 0.99609375  0 0 0 0 0.99609375  0 0 0 0 0.99609375  0 0 0 1 0"></feColorMatrix></filter></defs></svg></g> <g filter="url(#colors279337678)"><svg xmlns="http://www.w3.org/2000/svg" viewBox="0 0 280.07 200" width="40" height="40" x="10" y="10" class="image-svg-icon"><g><path d="M140.05 0a100 100 0 0 1 93.32 64 70 70 0 0 1-23.32 136h-140A70 70 0 0 1 46.73 64a100 100 0 0 1 93.32-64zm0 20a80.07 80.07 0 0 0-77.64 60.58A50 50 0 0 0 70.05 180h140a50 50 0 0 0 7.64-99.4A80 80 0 0 0 140.05 20z"></path></g></svg></g></g><mask id="513b285a-c9df-4202-b523-2fe47a639c89"><g fill="white"><svg xmlns="http://www.w3.org/2000/svg" xmlns:xlink="http://www.w3.org/1999/xlink" xmlns:sketch="http://www.bohemiancoding.com/sketch/ns" viewBox="0 0 60 60" version="1.1" x="0" y="0" style="overflow: visible;" width="60" height="60" filtersec="colorsf8392621420"><g transform="scale(1, 1) skewX(0)"><title>96 - Rounded (Solid)</title><desc>Created with Sketch.</desc><g fill-rule="evenodd"><g><path d="M49.001,0 L10.999,0 C4.934,0 0,4.934 0,10.999 L0,49.001 C0,55.066 4.934,60 10.999,60 L49.001,60 C55.065,60 60,55.066 60,49.001 L60,10.999 C60,4.934 55.065,0 49.001,0"></path></g></g></g><defs></defs></svg></g> <g fill="black"><svg xmlns="http://www.w3.org/2000/svg" viewBox="0 0 280.07 200" width="40" height="40" x="10" y="10" class="image-svg-icon"><g><path d="M140.05 0a100 100 0 0 1 93.32 64 70 70 0 0 1-23.32 136h-140A70 70 0 0 1 46.73 64a100 100 0 0 1 93.32-64zm0 20a80.07 80.07 0 0 0-77.64 60.58A50 50 0 0 0 70.05 180h140a50 50 0 0 0 7.64-99.4A80 80 0 0 0 140.05 20z"></path></g></svg></g></mask></svg> <defs><filter id="colors279337678"><feColorMatrix type="matrix" values="0 0 0 0 0.99609375  0 0 0 0 0.99609375  0 0 0 0 0.99609375  0 0 0 1 0" class="icon-fecolormatrix"></feColorMatrix></filter> <filter id="colorsf8392621420"><feColorMatrix type="matrix" values="0 0 0 0 0.99609375  0 0 0 0 0.99609375  0 0 0 0 0.99609375  0 0 0 1 0" class="icon-fecolormatrix"></feColorMatrix></filter> <filter id="colorsb9701518014"><feColorMatrix type="matrix" values="0 0 0 0 0  0 0 0 0 0  0 0 0 0 0  0 0 0 1 0" class="icon-fecolormatrix"></feColorMatrix></filter></defs><rect v-gra="id" width="67" height="67" transform="translate(-6, -6)" style="pointer-events:none;" fill="url(#z26CtQSOk0wkN-fDBPDb5)"></rect></g> <g transform="translate(62,2.1981239318847656)"><g data-gra="path-name" fill-rule="" class="tp-name iconsvg-namesvg" transform="translate(0,0)"><g transform="scale(1)"><g><path d="M37.02-8.46L37.4-8.38 36.49-1.79Q38.43 1.37 37.44 2.29L37.44 2.29Q36.6 3.16 35.29 3.01 33.97 2.86 32.77 2.25 31.57 1.64 30.58 0.72L30.58 0.72Q28.03-1.45 26.05-4.46L26.05-4.46Q21.02 0.57 13.98 3.12L13.98 3.12 13.67 2.67Q20.03-1.07 24.34-7.5L24.34-7.5Q21.18-14.09 20.45-24.03L20.45-24.03 9.48-24.03 9.48-17.79 14.09-17.79 16.26-19.96 20.19-16.68Q19.77-16.19 18.66-16.03L18.66-16.03Q18.47-9.67 17.98-7.01 17.48-4.34 16.22-3.31L16.22-3.31Q14.63-2.06 12-2.06L12-2.06Q12-4.23 11.46-4.95L11.46-4.95Q10.78-5.75 9.06-6.21L9.06-6.21 9.06-6.7Q10.89-6.55 12.23-6.55L12.23-6.55Q12.95-6.55 13.25-6.86L13.25-6.86Q14.21-7.69 14.43-16.68L14.43-16.68 9.48-16.68Q9.48-14.4 9.37-12.66 9.25-10.93 8.78-8.46 8.3-5.98 7.46-4.04 6.63-2.09 5.03 0 3.43 2.09 1.18 3.66L1.18 3.66 0.84 3.31Q3.35-0.69 4.13-5.56 4.91-10.44 4.91-16.72L4.91-16.72 4.91-27 10.17-25.1 20.34-25.1Q20.07-29.71 20.07-33.1L20.07-33.1 26.01-32.53Q25.94-31.57 24.6-31.38L24.6-31.38Q24.53-28.18 24.72-25.1L24.72-25.1 30.58-25.1 31.99-26.89Q31.19-26.81 30.47-27.19L30.47-27.19Q30.05-28.41 28.89-29.71 27.73-31 26.51-31.84L26.51-31.84 26.77-32.14Q28.07-32.22 29.15-32.13 30.24-32.03 31-31.78 31.76-31.54 32.33-31.17 32.91-30.81 33.23-30.41 33.55-30.01 33.71-29.57 33.86-29.14 33.82-28.72 33.78-28.3 33.59-27.96L33.59-27.96Q35.31-26.7 37.67-24.6L37.67-24.6Q37.55-24.03 36.6-24.03L36.6-24.03 24.76-24.03Q25.25-17.06 27.08-12.3L27.08-12.3Q28.98-16.3 30.01-20.83L30.01-20.83 36.11-18.81Q35.84-18.01 34.54-18.05L34.54-18.05Q32.41-12.34 29.17-8L29.17-8Q30.85-5.37 33.25-3.54L33.25-3.54Q33.67-3.12 33.95-3.16 34.24-3.2 34.54-3.69L34.54-3.69Q35.95-5.98 37.02-8.46L37.02-8.46ZM55-20.19L56.71-20.19 58.65-22.7Q60.71-21.1 62.04-19.8L62.04-19.8 62.04-28.91Q61.62-28.6 60.79-28.75L60.79-28.75Q58.31-24.22 55-20.19L55-20.19ZM54.46-25.78L54.46-25.78 51.04-25.78 51.04-20.41Q52.86-22.89 54.46-25.78ZM48.79-12.91L53.93-12.91 54.92-13.98Q54.04-13.83 53.17-14.43L53.17-14.43Q53.05-15.35 52.06-17.02L52.06-17.02Q50.16-15.12 47.8-13.29L47.8-13.29 48.79-12.91ZM48.48-5.98L48.48-1.07 54.31-1.07 54.31-5.98 48.48-5.98ZM48.48-7.05L54.31-7.05 54.31-11.81 48.48-11.81 48.48-7.05ZM70.54-29.59L72.97-31.99 77.54-27.76Q77.12-27.23 75.75-27.23L75.75-27.23Q71.87-20.49 69.58-17.75L69.58-17.75Q73.24-15.77 75.03-13.06 76.82-10.36 76.82-7.62L76.82-7.62Q76.82-4.53 75.24-2.88 73.66-1.22 70.12-1.14L70.12-1.14Q70.12-4.08 69.51-4.91L69.51-4.91Q68.97-5.67 67.37-5.94L67.37-5.94 67.37-6.44 70.57-6.44Q71.14-6.44 71.49-6.63L71.49-6.63Q72.48-7.24 72.48-8.99L72.48-8.99Q72.48-13.83 68.55-17.63L68.55-17.63Q70-22.81 70.88-28.53L70.88-28.53 66.5-28.53 66.5 2.21Q66.5 2.4 66.08 2.7 65.66 3.01 64.77 3.31 63.87 3.62 62.88 3.62L62.88 3.62 62.04 3.62 62.04-19.42Q61.81-19.08 61.17-19.08L61.17-19.08 53.97-19.08 53.24-18.21Q54.81-17.98 55.68-17.35 56.56-16.72 56.58-16.05 56.6-15.39 56.29-14.78L56.29-14.78 60.06-11.92Q59.64-11.43 58.61-11.2L58.61-11.2 58.61 1.79Q58.58 2.02 57.3 2.46 56.02 2.89 55.03 2.89L55.03 2.89 54.31 2.89 54.31 0.04 48.48 0.04 48.48 2.17Q48.48 2.32 48.1 2.61 47.72 2.89 46.88 3.14 46.05 3.39 45.09 3.39L45.09 3.39 44.33 3.39 44.33-10.85Q41.89-9.29 40.07-8.46L40.07-8.46 39.69-8.91Q42.2-10.66 44.33-12.68L44.33-12.68 44.33-14.59 45.74-14.05Q48.06-16.45 50.08-19.08L50.08-19.08 40.29-19.08 39.99-20.19 46.77-20.19 46.77-25.78 42.01-25.78 41.7-26.89 46.77-26.89 46.77-32.91 52.44-32.41Q52.37-31.5 51.04-31.31L51.04-31.31 51.04-26.89 51.57-26.89 53.47-29.59Q54.42-28.72 55.45-27.73L55.45-27.73Q56.71-30.32 57.17-31.57L57.17-31.57 62.04-29.44 62.04-31.95 66.99-29.59 70.54-29.59ZM93.65-27.31L81.31-27.31 80.97-28.37 94.11-28.37Q94.76-30.39 94.83-33.13L94.83-33.13 101.38-32.41Q101.19-31.5 99.9-31.38L99.9-31.38Q99.67-29.9 99.14-28.37L99.14-28.37 106.18-28.37 108.93-31.76Q111.97-29.48 113.84-27.92L113.84-27.92Q113.69-27.31 112.7-27.31L112.7-27.31 98.64-27.31Q98.6-27.27 97.92-26.09L97.92-26.09Q105.5-25.9 108.01-22.97L108.01-22.97Q109.38-21.37 108.58-19.96L108.58-19.96Q107.86-18.66 106.26-18.97L106.26-18.97Q105.96-19 105.65-19.12L105.65-19.12Q104.55-20.41 102.26-22.07 99.98-23.73 97.16-25.06L97.16-25.06Q93.04-20.45 81.47-18.74L81.47-18.74 81.28-19.2Q91.03-21.86 93.65-27.31L93.65-27.31ZM89.08-11.96L89.08-5.18 94.83-5.18 94.83-11.96 89.08-11.96ZM99.33-11.2L99.33-11.2 99.33-3.24Q99.29-2.97 97.98-2.49 96.66-2.02 95.63-2.02L95.63-2.02 94.83-2.02 94.83-4.11 89.08-4.11 89.08-1.71Q89.08-1.37 87.83-0.86 86.57-0.34 85.27-0.34L85.27-0.34 84.7-0.34 84.7-14.82 89.27-13.06 94.45-13.06 96.55-15.27 100.93-12.04Q100.51-11.5 99.33-11.2ZM79.29-17.86L108.74-17.86 111.29-21.14Q114.18-18.97 115.93-17.37L115.93-17.37Q115.82-16.72 114.87-16.72L114.87-16.72 108.96-16.72 108.96-1.64Q108.96 0.8 107.73 2.02 106.49 3.24 102.64 3.47L102.64 3.47Q102.38 1.26 101.65 0.61L101.65 0.61Q100.39-0.42 97.65-0.84L97.65-0.84 97.65-1.33Q102.41-1.03 103.4-1.03L103.4-1.03Q104.28-1.03 104.28-1.71L104.28-1.71 104.28-16.72 79.6-16.72 79.29-17.86ZM146.06-30.74L146.06-30.74 152.08-27.84Q151.7-27.04 150.44-27.27L150.44-27.27Q145.91-22.55 141.22-19.65L141.22-19.65 140.8-20Q143.51-24.57 146.06-30.74ZM121.61-29.82L121.61-29.82 121.95-30.09Q128.16-28.26 129.95-24.64L129.95-24.64Q131.05-22.39 129.99-20.79L129.99-20.79Q129.07-19.35 127.36-19.84L127.36-19.84Q126.71-20.03 126.1-20.53L126.1-20.53Q125.49-24.91 121.61-29.82ZM153.64-16.76L153.64-16.76 139.24-16.76Q141.79-12.68 146.19-9.48 150.59-6.28 155.31-4.76L155.31-4.76 155.16-4.34Q153.79-4.08 152.76-2.99 151.73-1.9 151.28-0.23L151.28-0.23Q142.67-5.14 138.67-16.07L138.67-16.07 138.67 2.02Q138.67 2.4 137.41 2.93 136.16 3.47 134.9 3.47L134.9 3.47 133.99 3.47 133.99-11.12Q128.24-3.81 118.22 0.53L118.22 0.53 117.91 0.08Q122.33-2.97 125.97-7.5 129.61-12.04 131.7-16.76L131.7-16.76 118.83-16.76 118.49-17.9 133.99-17.9 133.99-33.1 140.12-32.53Q140-31.61 138.67-31.42L138.67-31.42 138.67-17.9 147.09-17.9 149.83-21.29Q152.84-19 154.71-17.41L154.71-17.41Q154.51-16.76 153.64-16.76ZM158.89-32.6L158.89-32.6 159.24-32.83Q164.34-31.99 165.6-29.4L165.6-29.4Q166.36-27.84 165.33-26.66L165.33-26.66Q164.3-25.48 162.67-26.2L162.67-26.2Q162.4-26.36 162.09-26.55L162.09-26.55Q161.52-29.44 158.89-32.6ZM157.1-23.96L157.1-23.96 157.45-24.18Q162.17-23.35 163.27-20.87L163.27-20.87Q163.96-19.31 162.89-18.24L162.89-18.24Q161.87-17.14 160.34-17.86L160.34-17.86Q160.04-18.01 159.77-18.24L159.77-18.24Q159.43-21.29 157.1-23.96ZM166.63-24.11L166.63-24.11 167.24-23.99Q164.3-13.22 163.69-10.32L163.69-10.32Q163.2-8.07 163.24-6.89L163.24-6.89Q163.24-6.17 163.98-3.98 164.72-1.79 164.65 0.23L164.65 0.23Q164.61 1.68 163.77 2.53 162.93 3.39 161.6 3.39L161.6 3.39Q160.95 3.39 160.44 2.89 159.92 2.4 159.73 1.37L159.73 1.37Q160.23-1.75 160.13-4.17 160.04-6.59 159.39-7.05L159.39-7.05Q158.7-7.58 157.45-7.69L157.45-7.69 157.45-8.42 159.16-8.42Q159.47-8.42 159.6-8.46 159.73-8.49 159.9-8.66 160.08-8.84 160.27-9.25L160.27-9.25Q161.14-10.97 166.63-24.11ZM173.21-18.59L173.21-18.59 174.93-18.59 177.02-20.79 177.67-20.19Q178.93-22.74 179.65-24.95L179.65-24.95 173.25-24.95 173.25-20.53Q173.25-19.23 173.21-18.59ZM188.14-10.89L189.25-10.89 191.12-13.79Q193.29-11.73 194.5-10.36L194.5-10.36Q194.35-9.75 193.48-9.75L193.48-9.75 188.14-9.75 188.14-1.49Q188.14 0.99 187.19 2.09 186.24 3.2 183.12 3.5L183.12 3.5Q183.04 1.45 182.47 0.53L182.47 0.53Q181.86-0.42 180.03-0.72L180.03-0.72 180.03-1.33Q182.74-1.14 183.35-1.14 183.96-1.14 183.96-1.71L183.96-1.71 183.96-9.75 179.35-9.75 179.12-10.66Q178.93-4.49 178.49-1.83 178.05 0.84 176.99 1.9L176.99 1.9Q175.42 3.47 172.68 3.47L172.68 3.47Q172.68 1.29 172.15 0.69L172.15 0.69Q171.62-0.08 169.75-0.57L169.75-0.57 169.75-1.14Q171.65-0.99 172.83-0.99L172.83-0.99Q173.63-0.99 174.01-1.37L174.01-1.37Q174.7-2.06 174.97-5.6 175.23-9.14 175.31-17.48L175.31-17.48 173.21-17.48Q172.64-3.39 164.84 3.43L164.84 3.43 164.46 3.08Q166.05 0.38 167.08-2.76 168.11-5.9 168.55-9.2 168.99-12.49 169.14-14.97 169.29-17.44 169.29-20.53L169.29-20.53 169.29-24.95 166.17-24.95 165.86-26.05 170.51-26.05 170.51-33.13 176-32.68Q175.92-31.76 174.59-31.57L174.59-31.57 174.59-26.05 175.54-26.05 177.44-29.02Q178.89-27.65 180.07-26.39L180.07-26.39Q181.17-29.86 181.71-33.13L181.71-33.13 187.42-31.31Q187.19-30.66 186.16-30.77L186.16-30.77Q185.33-28.83 183.5-26.13L183.5-26.13 187.88-26.13 190.13-29.29Q192.79-27.16 194.31-25.67L194.31-25.67Q194.2-25.02 193.25-25.02L193.25-25.02 182.74-25.02Q180.38-21.71 178.2-19.77L178.2-19.77 180.79-17.52Q180.15-16.95 179.19-16.83L179.19-16.83Q179.19-15.81 179.18-13.81 179.16-11.81 179.12-10.89L179.12-10.89 183.96-10.89 183.96-16.57 185.82-16.42Q187.27-18.97 187.84-20.11L187.84-20.11 180.76-20.11 180.41-21.25 187.95-21.25 190.05-23.27 193.67-20Q193.29-19.61 192.11-19.58L192.11-19.58Q189.29-17.63 187-16.3L187-16.3 189.48-16.07Q189.36-15.2 188.14-15.04L188.14-15.04 188.14-10.89Z" transform="translate(-0.8400000333786011, 33.130001068115234)"></path></g> <!----> <!----> <!----> <!----> <!----> <!----> <!----></g></g> <g data-gra="path-slogan" fill-rule="" class="tp-slogan iconsvg-slogansvg" fill="#0a0619" transform="translate(5,44.790000915527344)"><rect x="0" height="1" y="3.4050002098083496" width="45.250003814697266"></rect> <rect height="1" y="3.4050002098083496" width="37.250003814697266" x="146.4099998474121"></rect> <g transform="translate(48.250003814697266,0)"><g transform="scale(1)"><path d="M6.72-5.04L6.72-5.04L5.78-5.04Q5.43-6.48 3.79-6.52L3.79-6.52Q1.52-6.41 1.45-3.63L1.45-3.63Q1.45-0.66 3.83-0.66L3.83-0.66Q5.47-0.70 5.86-2.66L5.86-2.66L6.80-2.66Q6.37 0.04 3.63 0.12L3.63 0.12Q0.51 0 0.43-3.59L0.43-3.59Q0.59-7.19 3.79-7.34L3.79-7.34Q6.33-7.27 6.72-5.04ZM8.91-4.22L12.66-4.22L12.66-7.15L13.63-7.15L13.63 0L12.66 0L12.66-3.32L8.91-3.32L8.91 0L7.93 0L7.93-7.15L8.91-7.15L8.91-4.22ZM16.21-0.86L20.51-0.86L20.51 0L15.23 0L15.23-7.15L20.43-7.15L20.43-6.33L16.21-6.33L16.21-4.10L20.12-4.10L20.12-3.24L16.21-3.24L16.21-0.86ZM22.93-7.15L26.52-1.37L26.52-7.15L27.46-7.15L27.46 0L26.37 0L22.73-5.78L22.70-5.78L22.70 0L21.76 0L21.76-7.15L22.93-7.15ZM34.30-3.01L32.11-3.01L32.11-3.83L35.23-3.83L35.23 0L34.61 0L34.38-0.90Q33.55 0.08 32.03 0.12L32.03 0.12Q30.59 0.12 29.80-0.63L29.80-0.63Q28.63-1.72 28.67-3.63L28.67-3.63Q28.95-7.19 32.07-7.34L32.07-7.34Q34.73-7.19 35.12-5L35.12-5L34.18-5Q33.79-6.48 32.03-6.52L32.03-6.52Q29.80-6.37 29.69-3.59L29.69-3.59Q29.69-0.63 32.07-0.63L32.07-0.63Q32.93-0.63 33.55-1.09L33.55-1.09Q34.34-1.72 34.30-3.01L34.30-3.01ZM39.65 0L36.76 0L36.76-7.15L39.69-7.15Q42.58-6.99 42.70-3.67L42.70-3.67Q42.54-0.08 39.65 0L39.65 0ZM39.53-6.37L37.73-6.37L37.73-0.82L39.61-0.82Q41.64-0.94 41.72-3.59L41.72-3.59Q41.68-6.29 39.53-6.37L39.53-6.37ZM48.63-2.66L48.63-7.15L49.61-7.15L49.61-2.54Q49.49 0.04 46.68 0.12L46.68 0.12Q44.06 0.04 43.95-2.38L43.95-2.38L43.95-7.15L44.92-7.15L44.92-2.66Q44.96-0.70 46.72-0.66L46.72-0.66Q48.63-0.70 48.63-2.66L48.63-2.66ZM58.05-0.90L57.30-1.48L57.81-2.07L58.71-1.37Q59.53-2.19 59.53-3.55L59.53-3.55Q59.38-6.37 57.03-6.52L57.03-6.52Q54.65-6.41 54.53-3.55L54.53-3.55Q54.65-0.78 57.03-0.66L57.03-0.66Q57.62-0.66 58.05-0.90L58.05-0.90ZM59.49-0.78L60.43-0.04L59.96 0.47L58.87-0.27Q58.16 0.12 57.03 0.12L57.03 0.12Q53.75 0 53.52-3.55L53.52-3.55Q53.71-7.27 57.03-7.34L57.03-7.34Q60.27-7.23 60.51-3.55L60.51-3.55Q60.47-1.84 59.49-0.78L59.49-0.78ZM61.80-7.15L62.77-7.15L62.77 0L61.80 0L61.80-7.15ZM71.29-7.15L71.29 0L70.35 0L70.35-4.22Q70.35-4.80 70.35-6.02L70.35-6.02L68.32 0L67.34 0L65.35-6.02L65.31-6.02Q65.31-5.59 65.35-4.73L65.35-4.73Q65.35-4.30 65.35-4.22L65.35-4.22L65.35 0L64.38 0L64.38-7.15L65.78-7.15L67.85-1.09L69.88-7.15L71.29-7.15ZM72.85-7.15L73.83-7.15L73.83 0L72.85 0L72.85-7.15ZM81.25-7.15L78.55-2.89L78.55 0L77.58 0L77.58-2.89L74.88-7.15L76.02-7.15L78.05-3.71L80.12-7.15L81.25-7.15ZM87.77-3.55L87.77-3.55Q87.62-6.37 85.27-6.52L85.27-6.52Q82.89-6.41 82.77-3.55L82.77-3.55Q82.89-0.78 85.27-0.66L85.27-0.66Q87.62-0.82 87.77-3.55ZM88.75-3.55L88.75-3.55Q88.52 0 85.27 0.12L85.27 0.12Q81.99 0 81.76-3.55L81.76-3.55Q81.95-7.27 85.27-7.34L85.27-7.34Q88.52-7.23 88.75-3.55ZM94.61-2.66L94.61-7.15L95.59-7.15L95.59-2.54Q95.47 0.04 92.66 0.12L92.66 0.12Q90.04 0.04 89.92-2.38L89.92-2.38L89.92-7.15L90.90-7.15L90.90-2.66Q90.94-0.70 92.70-0.66L92.70-0.66Q94.61-0.70 94.61-2.66L94.61-2.66Z" transform="translate(-0.4296875, 7.34375)"></path></g></g></g></g></g><defs v-gra="od"></defs><defs v-gra="id"><filter id="b58dbf75-3574-43d8-8139-622ec41c0512" filterUnits="userSpaceOnUse"><feColorMatrix type="matrix" values="0 0 0 0 0.99609375  0 0 0 0 0.99609375  0 0 0 0 0.99609375  0 0 0 1 0"></feColorMatrix></filter><linearGradient x1="0" y1="1" x2="0" y2="0" id="z26CtQSOk0wkN-fDBPDb5"><stop offset="0%" stop-color="#ff51f9"></stop><stop offset="50%" stop-color="#a348ff"></stop><stop offset="100%" stop-color="#3978ff"></stop></linearGradient><filter id="42443b3f1de60f6b6fd3b6a9844b4764" filterUnits="objectBoundingBox"><feColorMatrix type="matrix" values="0 0 0 0 0.99609375  0 0 0 0 0.99609375  0 0 0 0 0.99609375  0 0 0 1 0"></feColorMatrix></filter></defs><mask v-gra="im" id="94ff81f3-e38e-40fe-8878-6da77cd72bd9"><g fill="#FFFFFF" class="iconsvg-imagesvg icon_container" filter="url(#b58dbf75-3574-43d8-8139-622ec41c0512)"><rect fill="#0a0619" fill-opacity="0" stroke-width="2" x="0" y="0" width="55" height="55" class="image-rect"></rect> <svg viewBox="0 0 60 60" x="0" y="0" width="55" height="55" class="image-svg-svg bn" style="overflow: visible;"><g hollow-target="iconBnFill" mask="url(#513b285a-c9df-4202-b523-2fe47a639c89)"><g><svg fill="#000000" xmlns="http://www.w3.org/2000/svg" xmlns:xlink="http://www.w3.org/1999/xlink" xmlns:sketch="http://www.bohemiancoding.com/sketch/ns" viewBox="0 0 60 60" version="1.1" x="0" y="0" style="overflow: visible;" width="60" height="60" filtersec="colorsf8392621420"><g transform="scale(1, 1) skewX(0)"><title>96 - Rounded (Solid)</title><desc>Created with Sketch.</desc><g fill-rule="evenodd"><g fill="#000000"><path d="M49.001,0 L10.999,0 C4.934,0 0,4.934 0,10.999 L0,49.001 C0,55.066 4.934,60 10.999,60 L49.001,60 C55.065,60 60,55.066 60,49.001 L60,10.999 C60,4.934 55.065,0 49.001,0"></path></g></g></g><defs><filter id="LZRNk-I_kuv3Ht8FxRmXd"><feColorMatrix type="matrix" values="0 0 0 0 0.99609375  0 0 0 0 0.99609375  0 0 0 0 0.99609375  0 0 0 1 0"></feColorMatrix></filter></defs></svg></g> <g><svg xmlns="http://www.w3.org/2000/svg" viewBox="0 0 280.07 200" width="40" height="40" x="10" y="10" class="image-svg-icon"><g><path d="M140.05 0a100 100 0 0 1 93.32 64 70 70 0 0 1-23.32 136h-140A70 70 0 0 1 46.73 64a100 100 0 0 1 93.32-64zm0 20a80.07 80.07 0 0 0-77.64 60.58A50 50 0 0 0 70.05 180h140a50 50 0 0 0 7.64-99.4A80 80 0 0 0 140.05 20z"></path></g></svg></g></g><mask id="513b285a-c9df-4202-b523-2fe47a639c89"><g fill="white"><svg xmlns="http://www.w3.org/2000/svg" xmlns:xlink="http://www.w3.org/1999/xlink" xmlns:sketch="http://www.bohemiancoding.com/sketch/ns" viewBox="0 0 60 60" version="1.1" x="0" y="0" style="overflow: visible;" width="60" height="60" filtersec="colorsf8392621420"><g transform="scale(1, 1) skewX(0)"><title>96 - Rounded (Solid)</title><desc>Created with Sketch.</desc><g fill-rule="evenodd"><g><path d="M49.001,0 L10.999,0 C4.934,0 0,4.934 0,10.999 L0,49.001 C0,55.066 4.934,60 10.999,60 L49.001,60 C55.065,60 60,55.066 60,49.001 L60,10.999 C60,4.934 55.065,0 49.001,0"></path></g></g></g><defs></defs></svg></g> <g fill="black"><svg xmlns="http://www.w3.org/2000/svg" viewBox="0 0 280.07 200" width="40" height="40" x="10" y="10" class="image-svg-icon"><g><path d="M140.05 0a100 100 0 0 1 93.32 64 70 70 0 0 1-23.32 136h-140A70 70 0 0 1 46.73 64a100 100 0 0 1 93.32-64zm0 20a80.07 80.07 0 0 0-77.64 60.58A50 50 0 0 0 70.05 180h140a50 50 0 0 0 7.64-99.4A80 80 0 0 0 140.05 20z"></path></g></svg></g></mask></svg> <defs><filter id="colors279337678"><feColorMatrix type="matrix" values="0 0 0 0 0.99609375  0 0 0 0 0.99609375  0 0 0 0 0.99609375  0 0 0 1 0" class="icon-fecolormatrix"></feColorMatrix></filter> <filter id="colorsf8392621420"><feColorMatrix type="matrix" values="0 0 0 0 0.99609375  0 0 0 0 0.99609375  0 0 0 0 0.99609375  0 0 0 1 0" class="icon-fecolormatrix"></feColorMatrix></filter> <filter id="colorsb9701518014"><feColorMatrix type="matrix" values="0 0 0 0 0  0 0 0 0 0  0 0 0 0 0  0 0 0 1 0" class="icon-fecolormatrix"></feColorMatrix></filter></defs></g></mask></svg>